{"title":"The Iceman 2012 BRRiP XViD SAF","uid":8798272,"size":1440846163,"categoryP":"video","categoryS":"movies","magnet":"?xt=urn:btih:84116eb5cb3c0c1af4356ebff83946b61092ec78&amp;dn=The+Iceman+2012+BRRiP+XViD+SAF&amp;tr=udp%3A%2F%2Ftracker.openbittorrent.com%3A80&amp;tr=udp%3A%2F%2Fopen.demonii.com%3A1337&amp;tr=udp%3A%2F%2Ftracker.coppersurfer.tk%3A6969&amp;tr=udp%3A%2F%2Fexodus.desync.com%3A6969","seeders":0,"leechers":2,"uploader":"xxxlavalxxx","files":-1,"time":1376130206,"description":"\n\n &lt;a href=&quot;\nhttp://www.imdb.com/title/tt1491044/&quot; rel=&quot;nofollow&quot; target=&quot;_NEW&quot;&gt;\nhttp://www.imdb.com/title/tt1491044/&lt;/a&gt;\n\n\n\nThe true story of Richard Kuklinski, the notorious contract killer and family man. When finally arrested in 1986, neither his wife nor daughters have any clue about his real profession. \n\n\n\nDirector:\n Ariel Vromen \n\nWriters:\n Morgan Land (screenplay), Ariel Vromen (screenplay)\n\nStars:\n Michael Shannon, Winona Ryder, Chris Evans \n\nGenres:\n  Biography |  Crime |  Drama |  Thriller \n\nCountry:\n USA \n\nLanguage:\n English \n\n\n\n\n\n Format                                   : AVI\n Format/Info                              : Audio Video Interleave\n File size                                : 1.32 GiB\n Duration                                 : 1h 45mn\n Overall bit rate                         : 1 796 Kbps\n Writing application                      : VirtualDubMod 1.5.10.2 (build 2540/release)\n Writing library                          : VirtualDubMod build 2540/release\n\n Video\n ID                                       : 0\n Format                                   : MPEG-4 Visual\n Format profile                           : Advanced Simple@L5\n Format settings, BVOP                    : 2\n Format settings, QPel                    : No\n Format settings, GMC                     : No warppoints\n Format settings, Matrix                  : Default (H.263)\n Muxing mode                              : Packed bitstream\n Codec ID                                 : XVID\n Codec ID/Hint                            : XviD\n Duration                                 : 1h 45mn\n Bit rate                                 : 1 403 Kbps\n Width                                    : 720 pixels\n Height                                   : 384 pixels\n Display aspect ratio                     : 1.85:1\n Frame rate                               : 23.976 fps\n Color space                              : YUV\n Chroma subsampling                       : 4:2:0\n Bit depth                                : 8 bits\n Scan type                                : Progressive\n Compression mode                         : Lossy\n Bits/(Pixel*Frame)                       : 0.212\n Stream size                              : 1.03 GiB (78%)\n Writing library                          : XviD 64\n\n Audio\n ID                                       : 1\n Format                                   : AC-3\n Format/Info                              : Audio Coding 3\n Mode extension                           : CM (complete main)\n Format settings, Endianness              : Big\n Codec ID                                 : 2000\n Duration                                 : 1h 45mn\n Bit rate mode                            : Constant\n Bit rate                                 : 384 Kbps\n Channel(s)                               : 6 channels\n Channel positions                        : Front: L C R, Side: L R, LFE\n Sampling rate                            : 48.0 KHz\n Bit depth                                : 16 bits\n Compression mode                         : Lossy\n Stream size                              : 290 MiB (21%)\n Alignment                                : Split accross interleaves\n Interleave, duration                     : 42 ms (1.00 video frame)\n Interleave, preload duration             : 500 ms\n\n\n\n\n\n Source Used     The Iceman 2012 LIMITED 720p BluRay x264-ALLiANCE    -   Thanks \n\n\n\n &lt;a href=&quot;\nhttp://bayimg.com/iaOOPaaed&quot; rel=&quot;nofollow&quot; target=&quot;_NEW&quot;&gt;\nhttp://bayimg.com/iaOOPaaed&lt;/a&gt; &lt;a href=&quot;\nhttp://bayimg.com/JAOoBAaEd&quot; rel=&quot;nofollow&quot; target=&quot;_NEW&quot;&gt;\nhttp://bayimg.com/JAOoBAaEd&lt;/a&gt;\n","torrent":{"xt":"urn:btih:84116eb5cb3c0c1af4356ebff83946b61092ec78","amp;dn":"The+Iceman+2012+BRRiP+XViD+SAF","amp;tr":["udp%3A%2F%2Ftracker.openbittorrent.com%3A80","udp%3A%2F%2Fopen.demonii.com%3A1337","udp%3A%2F%2Ftracker.coppersurfer.tk%3A6969","udp%3A%2F%2Fexodus.desync.com%3A6969"],"infoHash":"84116eb5cb3c0c1af4356ebff83946b61092ec78","infoHashBuffer":{"type":"Buffer","data":[132,17,110,181,203,60,12,26,244,53,110,191,248,57,70,182,16,146,236,120]},"announce":[],"urlList":[]}}